<svg width="216" height="125" viewBox="0 0 216 125" fill="none" xmlns="http://www.w3.org/2000/svg">
<path d="M83.1981 91.4498C82.4081 91.4498 81.8781 91.2199 81.3281 90.6599L81.6381 90.3498C82.1181 90.8298 82.5081 91.0098 83.1881 91.0098C83.6381 91.0098 84.4981 90.8798 84.4981 90.2698C84.4981 89.8298 84.0381 89.6498 83.6681 89.6398H82.8881C82.4281 89.6298 82.1981 89.5698 81.9781 89.4298C81.7381 89.2698 81.5981 88.9898 81.5981 88.6998C81.5981 87.8898 82.5181 87.5898 83.1881 87.5898C83.7881 87.5898 84.2681 87.7698 84.7481 88.1298L84.4781 88.4698C84.0581 88.1698 83.6981 88.0298 83.1781 88.0298C82.7881 88.0298 82.0481 88.1898 82.0481 88.6998C82.0481 88.8498 82.1281 89.0098 82.2681 89.0798C82.4381 89.1698 82.5481 89.1898 83.0181 89.1998H83.5681C83.8281 89.1998 84.0881 89.2298 84.3181 89.3298C84.6981 89.4898 84.9581 89.8798 84.9581 90.2898C84.9581 91.1798 83.9381 91.4498 83.2181 91.4498H83.1981Z" fill="#9FA1A4"/>
<path d="M89.9784 89.5697C89.7484 89.7497 89.4684 89.7897 89.1884 89.7897H87.5784V91.3597H87.1484V87.6797H89.1884C89.8784 87.6797 90.3484 87.9997 90.3484 88.7297C90.3484 89.0397 90.2284 89.3797 89.9784 89.5697ZM89.6584 88.1897C89.5784 88.1397 89.4584 88.1097 89.1884 88.1097H87.5784V89.3497H89.1884C89.6284 89.3497 89.9184 89.1897 89.9184 88.7197C89.9184 88.5097 89.8384 88.2997 89.6584 88.1897Z" fill="#9FA1A4"/>
<path d="M92.5803 91.3499V87.6699H95.6103V88.0999H93.0103V89.2199H94.3703V89.6499H93.0103V90.9099H95.7103V91.3399H92.5703L92.5803 91.3499Z" fill="#9FA1A4"/>
<path d="M99.7805 91.4501C98.6505 91.4501 97.7305 90.6901 97.7305 89.5201C97.7305 88.3501 98.6005 87.5801 99.7205 87.5801C100.4 87.5801 101.02 87.8301 101.5 88.3101L101.19 88.6101C100.77 88.2401 100.29 88.0001 99.7005 88.0001C98.8605 88.0001 98.1705 88.6501 98.1705 89.5001C98.1705 90.4301 98.9205 91.0101 99.8105 91.0101C100.4 91.0101 100.85 90.8001 101.26 90.3801L101.56 90.7101C101.04 91.2201 100.54 91.4401 99.7905 91.4401L99.7805 91.4501Z" fill="#9FA1A4"/>
<path d="M103.852 91.3502V87.6602H104.282V91.3502H103.852Z" fill="#9FA1A4"/>
<path d="M109.739 91.3499L109.139 90.0799H107.369L106.789 91.3499H106.309L108.059 87.6699H108.499L110.219 91.3499H109.739ZM108.269 88.1999L107.579 89.6599H108.939L108.269 88.1999Z" fill="#9FA1A4"/>
<path d="M112.262 91.3499V87.6699H112.692V90.9199H115.012V91.3499H112.262Z" fill="#9FA1A4"/>
<path d="M118.382 88.1097V91.3597H117.952V88.1097H116.602V87.6797H119.732V88.1097H118.382Z" fill="#9FA1A4"/>
<path d="M123.318 89.6599V91.3499H122.888V89.6599L121.328 87.6699H121.888L123.118 89.2299L124.348 87.6699H124.908L123.328 89.6599H123.318Z" fill="#9FA1A4"/>
<path d="M131.749 91.4501C130.619 91.4501 129.699 90.6901 129.699 89.5201C129.699 88.3501 130.569 87.5801 131.689 87.5801C132.369 87.5801 132.989 87.8301 133.469 88.3101L133.159 88.6101C132.739 88.2401 132.259 88.0001 131.669 88.0001C130.829 88.0001 130.139 88.6501 130.139 89.5001C130.139 90.4301 130.889 91.0101 131.779 91.0101C132.369 91.0101 132.819 90.8001 133.229 90.3801L133.529 90.7101C133.009 91.2201 132.509 91.4401 131.759 91.4401L131.749 91.4501Z" fill="#9FA1A4"/>
<path d="M137.5 91.4498C136.43 91.4498 135.52 90.6198 135.52 89.5298C135.52 88.4398 136.44 87.5898 137.53 87.5898C138.62 87.5898 139.5 88.3998 139.5 89.5098C139.5 90.6198 138.61 91.4498 137.5 91.4498ZM137.53 88.0298C136.68 88.0298 135.96 88.6598 135.96 89.5298C135.96 90.3998 136.67 91.0098 137.51 91.0098C138.35 91.0098 139.06 90.3798 139.06 89.5098C139.06 88.6398 138.38 88.0198 137.53 88.0198V88.0298Z" fill="#9FA1A4"/>
<path d="M142.352 88.0999V89.2699H143.952V89.7099H142.352V91.3499H141.922V87.6699H144.922V88.0999H142.362H142.352Z" fill="#9FA1A4"/>
<path d="M147.571 88.0999V89.2699H149.171V89.7099H147.571V91.3499H147.141V87.6699H150.141V88.0999H147.581H147.571Z" fill="#9FA1A4"/>
<path d="M152.379 91.3499V87.6699H155.409V88.0999H152.809V89.2199H154.169V89.6499H152.809V90.9099H155.519V91.3399H152.379V91.3499Z" fill="#9FA1A4"/>
<path d="M157.781 91.3499V87.6699H160.811V88.0999H158.211V89.2199H159.571V89.6499H158.211V90.9099H160.921V91.3399H157.781V91.3499Z" fill="#9FA1A4"/>
<path d="M169.159 89.5999C168.979 89.7499 168.819 89.7899 168.599 89.8299L169.459 91.3499H168.959L168.109 89.8299H166.649V91.3499H166.219V87.6699H168.059C168.659 87.6699 168.819 87.6899 169.099 87.8699C169.389 88.0599 169.549 88.4199 169.549 88.7499C169.549 89.0799 169.409 89.3899 169.169 89.5999H169.159ZM168.309 88.0999H166.639V89.3899H168.229C168.559 89.3899 168.709 89.3899 168.859 89.2799C169.019 89.1699 169.109 88.9599 169.109 88.7599C169.109 88.2799 168.739 88.0999 168.309 88.0999Z" fill="#9FA1A4"/>
<path d="M173.492 91.4498C172.422 91.4498 171.512 90.6198 171.512 89.5298C171.512 88.4398 172.432 87.5898 173.522 87.5898C174.612 87.5898 175.492 88.3998 175.492 89.5098C175.492 90.6198 174.602 91.4498 173.492 91.4498ZM173.522 88.0298C172.672 88.0298 171.952 88.6598 171.952 89.5298C171.952 90.3998 172.662 91.0098 173.502 91.0098C174.342 91.0098 175.052 90.3798 175.052 89.5098C175.052 88.6398 174.372 88.0198 173.522 88.0198V88.0298Z" fill="#9FA1A4"/>
<path d="M180.711 91.3499L180.111 90.0799H178.341L177.761 91.3499H177.281L179.031 87.6699H179.471L181.191 91.3499H180.711ZM179.241 88.1999L178.551 89.6599H179.911L179.241 88.1999Z" fill="#9FA1A4"/>
<path d="M184.569 91.4498C183.779 91.4498 183.249 91.2199 182.699 90.6599L183.009 90.3498C183.489 90.8298 183.879 91.0098 184.559 91.0098C185.009 91.0098 185.869 90.8798 185.869 90.2698C185.869 89.8298 185.409 89.6498 185.039 89.6398H184.259C183.799 89.6298 183.569 89.5698 183.349 89.4298C183.109 89.2698 182.969 88.9898 182.969 88.6998C182.969 87.8898 183.889 87.5898 184.559 87.5898C185.159 87.5898 185.639 87.7698 186.119 88.1298L185.849 88.4698C185.429 88.1698 185.069 88.0298 184.549 88.0298C184.159 88.0298 183.419 88.1898 183.419 88.6998C183.419 88.8498 183.499 89.0098 183.639 89.0798C183.809 89.1698 183.919 89.1898 184.389 89.1998H184.939C185.199 89.1998 185.459 89.2298 185.689 89.3298C186.069 89.4898 186.329 89.8798 186.329 90.2898C186.329 91.1798 185.309 91.4498 184.589 91.4498H184.569Z" fill="#9FA1A4"/>
<path d="M189.901 88.1097V91.3597H189.471V88.1097H188.121V87.6797H191.251V88.1097H189.901Z" fill="#9FA1A4"/>
<path d="M193.49 91.3499V87.6699H196.52V88.0999H193.92V89.2199H195.28V89.6499H193.92V90.9099H196.62V91.3399H193.48L193.49 91.3499Z" fill="#9FA1A4"/>
<path d="M201.85 89.5999C201.67 89.7499 201.51 89.7899 201.29 89.8299L202.15 91.3499H201.65L200.8 89.8299H199.34V91.3499H198.91V87.6699H200.75C201.35 87.6699 201.51 87.6899 201.79 87.8699C202.08 88.0599 202.24 88.4199 202.24 88.7499C202.24 89.0799 202.1 89.3899 201.86 89.5999H201.85ZM201 88.0999H199.33V89.3899H200.92C201.25 89.3899 201.4 89.3899 201.55 89.2799C201.71 89.1699 201.8 88.9599 201.8 88.7599C201.8 88.2799 201.43 88.0999 201 88.0999Z" fill="#9FA1A4"/>
<path d="M205.811 91.4498C205.021 91.4498 204.491 91.2199 203.941 90.6599L204.251 90.3498C204.731 90.8298 205.121 91.0098 205.801 91.0098C206.251 91.0098 207.111 90.8798 207.111 90.2698C207.111 89.8298 206.651 89.6498 206.281 89.6398H205.501C205.041 89.6298 204.811 89.5698 204.591 89.4298C204.351 89.2698 204.211 88.9898 204.211 88.6998C204.211 87.8898 205.131 87.5898 205.801 87.5898C206.401 87.5898 206.881 87.7698 207.361 88.1298L207.091 88.4698C206.671 88.1698 206.311 88.0298 205.791 88.0298C205.401 88.0298 204.661 88.1898 204.661 88.6998C204.661 88.8498 204.741 89.0098 204.881 89.0798C205.051 89.1698 205.161 89.1898 205.631 89.1998H206.181C206.441 89.1998 206.701 89.2298 206.931 89.3298C207.311 89.4898 207.571 89.8798 207.571 90.2898C207.571 91.1798 206.551 91.4498 205.831 91.4498H205.811Z" fill="#9FA1A4"/>
<path d="M95.2611 68.4699C94.9911 68.5799 94.7811 68.7499 94.6311 68.9899C94.4711 69.2199 94.4011 69.4799 94.4011 69.7599V79.3899C94.4011 79.6699 94.4811 79.9299 94.6311 80.1599C94.7811 80.3899 95.0011 80.5599 95.2611 80.6799L95.6011 80.8099V80.9799H91.3411V80.8099L91.6811 80.6799C91.9511 80.5699 92.1611 80.3999 92.3111 80.1599C92.4611 79.9299 92.5411 79.6699 92.5411 79.3899V69.6499L87.9011 75.1599L83.2611 69.6499V79.3899C83.2611 79.6699 83.3411 79.9299 83.4911 80.1599C83.6511 80.3899 83.8611 80.5599 84.1211 80.6799L84.4611 80.8099V80.9799H81.1211V80.8099L81.4611 80.6799C81.7311 80.5699 81.9411 80.3999 82.0911 80.1599C82.2411 79.9199 82.3211 79.6699 82.3211 79.3899V69.7599C82.3211 69.4799 82.2411 69.2199 82.0911 68.9899C81.9411 68.7599 81.7211 68.5899 81.4611 68.4699L81.1211 68.3399V68.1699H84.4611V68.1899L88.5111 72.9799L92.5611 68.1899V68.1699H95.6211V68.3399L95.2811 68.4699H95.2611Z" fill="#2E2D2F"/>
<path d="M112.481 68.2192V68.3892L112.141 68.5192C111.871 68.6292 111.661 68.8092 111.511 69.0392C111.351 69.2692 111.281 69.5292 111.281 69.8092V76.9692C111.281 77.5592 111.171 78.1192 110.941 78.6392C110.711 79.1592 110.411 79.6092 110.021 79.9992C109.631 80.3892 109.181 80.6892 108.661 80.9192C108.141 81.1492 107.591 81.2592 107.001 81.2592H105.781C105.191 81.2592 104.641 81.1492 104.121 80.9192C103.601 80.6992 103.151 80.3892 102.761 79.9992C102.371 79.6092 102.071 79.1592 101.841 78.6392C101.611 78.1192 101.501 77.5592 101.501 76.9692V69.8092C101.501 69.5292 101.421 69.2692 101.271 69.0392C101.111 68.8092 100.901 68.6392 100.641 68.5192L100.301 68.3892V68.2192H104.561V68.3892L104.221 68.5192C103.951 68.6292 103.741 68.8092 103.591 69.0392C103.431 69.2692 103.361 69.5292 103.361 69.8092V76.9792C103.361 77.4492 103.411 77.8792 103.521 78.2792C103.631 78.6792 103.791 79.0292 104.011 79.3392C104.231 79.6392 104.501 79.8792 104.831 80.0592C105.161 80.2392 105.561 80.3192 106.021 80.3192H106.991C107.451 80.3192 107.891 80.2292 108.301 80.0592C108.711 79.8792 109.061 79.6392 109.371 79.3392C109.671 79.0392 109.911 78.6792 110.091 78.2692C110.271 77.8592 110.351 77.4192 110.351 76.9592V69.7892C110.351 69.5092 110.271 69.2492 110.121 69.0192C109.961 68.7892 109.751 68.6092 109.491 68.4992L109.151 68.3692V68.1992L112.491 68.2192H112.481Z" fill="#2E2D2F"/>
<path d="M122.661 68.1604C123.761 68.1604 124.701 68.3704 125.501 68.7004C126.291 69.0304 126.951 69.4804 127.451 70.0604C127.961 70.6404 128.331 71.3204 128.571 72.1004C128.811 72.8804 128.931 73.7104 128.931 74.6004C128.931 75.4904 128.811 76.3404 128.571 77.1104C128.331 77.8804 127.961 78.5604 127.451 79.1404C126.941 79.7204 126.291 80.1704 125.501 80.5004C124.701 80.8304 123.761 81.0004 122.661 81.0004H116.941V80.8304L117.281 80.7004C117.551 80.5904 117.761 80.4204 117.911 80.1804C118.061 79.9504 118.141 79.6904 118.141 79.4104V69.7204C118.141 69.4404 118.061 69.1804 117.911 68.9504C117.751 68.7204 117.541 68.5504 117.281 68.4304L116.941 68.3004V68.1504H122.661V68.1604ZM122.611 80.1004C124.091 80.1004 125.241 79.6404 125.971 78.6904C126.701 77.7404 127.071 76.3904 127.071 74.6304C127.071 72.8704 126.701 71.5204 125.971 70.5704C125.241 69.6204 124.131 69.1404 122.661 69.1404H120.001V80.1004H122.611Z" fill="#2E2D2F"/>
<path d="M145.61 68.9704C145.46 69.2004 145.38 69.4604 145.38 69.7404V79.3904C145.38 79.6704 145.46 79.9304 145.61 80.1604C145.77 80.3904 145.98 80.5604 146.24 80.6804L146.58 80.8104V80.9804H142.32V80.8104L142.66 80.6804C142.93 80.5704 143.14 80.4004 143.29 80.1604C143.44 79.9304 143.52 79.6704 143.52 79.3904V74.8104H136.72V79.3904C136.72 79.6704 136.8 79.9304 136.95 80.1604C137.1 80.3904 137.32 80.5604 137.58 80.6804L137.92 80.8104V80.9804H133.66V80.8104L134 80.6804C134.27 80.5704 134.48 80.4004 134.63 80.1604C134.78 79.9204 134.86 79.6704 134.86 79.3904V69.7404C134.86 69.4604 134.78 69.2004 134.63 68.9704C134.48 68.7404 134.26 68.5704 134 68.4504L133.66 68.3204V68.1504H137.92V68.3204L137.58 68.4504C137.31 68.5604 137.1 68.7304 136.95 68.9704C136.79 69.2004 136.72 69.4604 136.72 69.7404V73.8804H143.52V69.7404C143.52 69.4604 143.44 69.2004 143.29 68.9704C143.13 68.7404 142.92 68.5704 142.66 68.4504L142.32 68.3204V68.1504H146.58V68.3204L146.24 68.4504C145.97 68.5604 145.76 68.7304 145.61 68.9704Z" fill="#2E2D2F"/>
<path d="M180.489 68.1602V68.3401L180.149 68.4702C179.879 68.5802 179.669 68.7602 179.519 68.9902C179.359 69.2202 179.289 69.4802 179.289 69.7602V76.9102C179.289 77.5002 179.179 78.0602 178.949 78.5802C178.719 79.1002 178.419 79.5502 178.029 79.9402C177.639 80.3302 177.189 80.6302 176.669 80.8602C176.149 81.0902 175.599 81.2001 175.009 81.2001H173.789C173.199 81.2001 172.649 81.0902 172.129 80.8602C171.609 80.6402 171.159 80.3302 170.769 79.9402C170.379 79.5502 170.079 79.1002 169.849 78.5802C169.619 78.0602 169.509 77.5002 169.509 76.9102V69.7502C169.509 69.4702 169.429 69.2102 169.279 68.9802C169.119 68.7502 168.909 68.5802 168.649 68.4602L168.309 68.3302V68.1602H172.569V68.3302L172.229 68.4602C171.959 68.5702 171.749 68.7502 171.599 68.9802C171.439 69.2102 171.369 69.4702 171.369 69.7502V76.9202C171.369 77.3902 171.419 77.8202 171.529 78.2202C171.639 78.6202 171.799 78.9702 172.019 79.2802C172.239 79.5802 172.509 79.8202 172.839 80.0002C173.169 80.1802 173.569 80.2602 174.029 80.2602H174.999C175.459 80.2602 175.899 80.1702 176.309 80.0002C176.719 79.8202 177.069 79.5802 177.379 79.2802C177.679 78.9802 177.919 78.6202 178.099 78.2102C178.279 77.8002 178.359 77.3602 178.359 76.9002V69.7402C178.359 69.4602 178.279 69.2002 178.129 68.9702C177.969 68.7402 177.759 68.5601 177.499 68.4501L177.159 68.3202V68.1602H180.499H180.489Z" fill="#2E2D2F"/>
<path d="M207.72 78.5106L207.34 80.9806H198.16V80.8106L198.5 80.6806C198.77 80.5706 198.98 80.3906 199.13 80.1606C199.28 79.9306 199.36 79.6706 199.36 79.3906V69.7306C199.36 69.4506 199.28 69.1906 199.13 68.9606C198.97 68.7306 198.76 68.5606 198.5 68.4406L198.16 68.3106V68.1406H206.58L206.94 70.6306L206.77 70.6506L205.78 69.5306C205.51 69.2206 205.17 69.0706 204.77 69.0706H201.22V73.7006H203.14C203.42 73.7006 203.68 73.6206 203.91 73.4706C204.14 73.3206 204.31 73.1006 204.43 72.8406L204.45 72.8206H204.62V75.5206H204.45L204.43 75.5006C204.32 75.2306 204.14 75.0206 203.91 74.8706C203.68 74.7206 203.42 74.6406 203.14 74.6406H201.22V80.0406H205.55C205.96 80.0406 206.3 79.8906 206.56 79.5806L207.55 78.4606L207.72 78.5006V78.5106Z" fill="#2E2D2F"/>
<path d="M157.709 67.9395C154.339 67.9395 151.039 70.3495 151.039 74.5795C151.039 78.8095 154.339 81.1994 157.709 81.1994C161.079 81.1994 164.379 78.8195 164.379 74.5795C164.379 70.3395 161.079 67.9395 157.709 67.9395ZM157.709 80.2595C154.719 80.2595 152.839 77.4994 152.839 74.5594C152.839 71.6194 154.709 68.8595 157.709 68.8595C160.709 68.8595 162.579 71.6194 162.579 74.5594C162.579 77.4994 160.709 80.2595 157.709 80.2595Z" fill="#2E2D2F"/>
<path d="M187.02 70.5807C187.02 73.3007 193.1 73.3207 193.1 77.7007C193.1 80.0207 190.75 81.1807 188.9 81.1807C187.05 81.1807 186.02 80.5307 185.34 79.6707H185.77L185.26 80.4207H185.09V77.9107H185.26C185.26 77.9107 186.25 80.2507 188.84 80.2507C190.55 80.2507 191.24 79.1507 191.24 77.8407C191.24 76.6507 189.91 75.3607 188.53 74.6007C187.15 73.8407 185.59 73.1007 185.59 71.2007C185.59 68.8207 187.78 67.9707 189.4 67.9707C191.02 67.9707 192.14 68.7107 192.22 68.7607C192.18 68.8707 191.95 68.8507 191.95 68.8507L192.3 68.1407L192.47 68.1207L192.83 70.6307L192.66 70.6507C192.66 70.6507 191.81 68.9007 189.49 68.9007C188.06 68.9007 187.02 69.5907 187.02 70.5807Z" fill="#2E2D2F"/>
<path d="M210.939 81.0704C210.269 81.0704 209.719 80.5304 209.719 79.8604C209.719 79.1904 210.259 78.6504 210.929 78.6504C211.599 78.6504 212.149 79.1904 212.149 79.8604C212.149 80.5304 211.609 81.0704 210.939 81.0704ZM210.939 78.8204C210.359 78.8204 209.899 79.2904 209.899 79.8604C209.899 80.4304 210.369 80.9004 210.939 80.9004C211.509 80.9004 211.979 80.4304 211.979 79.8604C211.979 79.2804 211.509 78.8204 210.939 78.8204ZM211.459 79.8804C211.399 79.9204 211.339 79.9404 211.279 79.9504L211.609 80.4704H211.399L211.069 79.9504H210.559V80.4704H210.379V79.1804H211.159C211.279 79.1804 211.339 79.1804 211.419 79.2304C211.539 79.2904 211.599 79.4404 211.599 79.5604C211.599 79.6704 211.539 79.8004 211.439 79.8704L211.459 79.8804ZM211.339 79.3904C211.339 79.3904 211.259 79.3604 211.129 79.3604H210.559V79.7804H211.159C211.269 79.7804 211.309 79.7604 211.339 79.7404C211.399 79.7004 211.419 79.6304 211.419 79.5604C211.419 79.4904 211.389 79.4304 211.329 79.3904H211.339Z" fill="#2E2D2F"/>
<path d="M50.8098 40.8399C50.6898 40.8799 50.5598 40.9099 50.4298 40.9099H45.2498C45.1198 40.9099 44.9898 40.8899 44.8698 40.8399C43.8498 40.4799 43.5898 41.1399 43.5898 41.1399C43.5898 41.1399 46.0698 43.0099 46.4198 43.2399C46.7698 43.4699 47.4498 43.8399 47.4498 44.3499C47.4498 44.8699 47.2698 44.8599 45.8898 45.4399C44.5198 46.0199 43.8898 46.5399 43.8898 46.5399C43.8898 46.5399 44.1098 47.0399 44.7998 47.0299C45.4898 47.0299 46.3798 46.5499 46.5098 46.4799C46.6398 46.4099 47.0898 46.1799 47.4098 46.1599C47.7198 46.1399 47.8398 46.0399 47.8498 46.0299C47.8598 46.0299 47.9798 46.1399 48.2898 46.1599C48.6098 46.1799 49.0498 46.4099 49.1898 46.4799C49.3298 46.5499 50.2098 47.0199 50.8998 47.0299C51.5898 47.0299 51.8098 46.5399 51.8098 46.5399C51.8098 46.5399 51.1798 46.0199 49.8098 45.4399C48.4398 44.8599 48.2498 44.8699 48.2498 44.3499C48.2498 43.8299 48.9298 43.4699 49.2798 43.2399C49.6298 43.0099 52.1098 41.1399 52.1098 41.1399C52.1098 41.1399 51.8498 40.4699 50.8298 40.8399H50.8098Z" fill="#D70000"/>
<path d="M45.6492 114.221C44.4392 115.191 45.3792 117.901 45.3792 117.901C46.4592 114.891 45.6492 114.221 45.6492 114.221Z" fill="#D70000"/>
<path d="M41.4197 112.859C39.5697 114.169 40.7497 118.219 40.7497 118.219C42.5597 113.909 41.4197 112.859 41.4197 112.859Z" fill="#D70000"/>
<path d="M36.6195 117.879C38.1295 114.399 37.2195 113.539 37.2195 113.539C35.7095 114.589 36.6195 117.879 36.6195 117.879Z" fill="#D70000"/>
<path d="M32.8208 118.129C34.1808 115.569 33.5408 114.859 33.5408 114.859C32.3308 115.569 32.8208 118.129 32.8208 118.129Z" fill="#D70000"/>
<path d="M50.2882 117.91C50.2882 117.91 51.2382 115.19 50.0182 114.23C50.0182 114.23 49.2082 114.91 50.2882 117.91Z" fill="#D70000"/>
<path d="M54.2603 112.859C54.2603 112.859 53.1303 113.909 54.9303 118.219C54.9303 118.219 56.1003 114.179 54.2603 112.859Z" fill="#D70000"/>
<path d="M58.4593 113.539C58.4593 113.539 57.5493 114.399 59.0593 117.879C59.0593 117.879 59.9693 114.589 58.4593 113.539Z" fill="#D70000"/>
<path d="M62.1387 114.869C62.1387 114.869 61.4987 115.579 62.8587 118.139C62.8587 118.139 63.3587 115.579 62.1387 114.869Z" fill="#D70000"/>
<path d="M60.6505 117.46C60.6505 117.46 60.6505 118.92 59.1605 118.92C59.1605 118.92 57.3505 119.17 57.0005 116.55C57.0005 116.55 56.9105 118.9 55.1105 118.9C55.1105 118.9 53.8405 119.04 53.0605 117.73C52.2805 116.42 51.8105 116.45 51.8105 116.45C51.8105 116.45 51.9505 116.8 52.0005 117.23C52.1105 118.15 51.3905 118.96 50.4705 118.97C50.4705 118.97 50.4605 118.97 50.4505 118.97C50.4505 118.97 48.7405 119.07 48.5605 116.93C48.5205 116.24 48.5305 115.55 48.6105 114.86C48.7105 114.01 48.9005 113.06 49.8905 112.9C50.7305 112.77 51.4105 113.39 51.8405 114.04C51.8405 114.04 52.5805 111.81 55.1105 112.08C55.1105 112.08 53.8105 110.68 51.2005 111.89C50.7905 111.62 47.3105 109.15 49.9005 104.93C49.9005 104.93 52.0405 96.7197 55.6305 91.2197C58.9905 86.0697 59.1905 85.9097 59.2005 85.9097C59.1805 85.8897 55.2005 81.7697 54.1405 78.0097C54.1405 78.0097 50.2805 76.3397 49.3705 73.8897C48.4605 71.4497 48.4905 68.4297 48.4905 68.4297H47.2905C47.2905 68.4297 47.3205 71.4397 46.4105 73.8897C45.5005 76.3297 41.6405 78.0097 41.6405 78.0097C40.5805 81.7597 36.5905 85.8897 36.5805 85.9097C36.5905 85.9097 36.7905 86.0697 40.1505 91.2197C43.7405 96.7197 45.8805 104.93 45.8805 104.93C46.2205 105.49 46.4605 106.02 46.6105 106.52C46.6705 106.81 46.7305 107.09 46.7805 107.38C46.9105 108.61 46.5705 109.59 46.1205 110.32C45.4605 111.36 44.5605 111.92 44.5405 111.93C41.9005 110.68 40.5805 112.1 40.5805 112.1C43.1005 111.83 43.8505 114.06 43.8505 114.06C44.2905 113.41 44.9605 112.79 45.8005 112.92C46.7905 113.08 46.9805 114.03 47.0805 114.88C47.1605 115.56 47.1805 116.26 47.1305 116.95C46.9405 119.09 45.2405 118.99 45.2405 118.99C45.2405 118.99 45.2305 118.99 45.2205 118.99C44.3005 118.99 43.5805 118.17 43.6905 117.25C43.7405 116.81 43.8805 116.47 43.8805 116.47C43.8805 116.47 43.4005 116.44 42.6305 117.75C41.8505 119.06 40.5805 118.92 40.5805 118.92C38.7805 118.92 38.6905 116.57 38.6905 116.57C38.3405 119.19 36.5305 118.94 36.5305 118.94C35.0405 118.94 35.0405 117.48 35.0405 117.48C33.9105 119.12 31.9805 119.27 31.9805 119.27H63.7305C63.7305 119.27 61.8005 119.13 60.6705 117.48L60.6505 117.46ZM47.8905 103.64H47.6505C47.6505 103.64 44.7905 90.4797 44.6005 89.7097C44.4105 88.9297 43.3805 87.3897 43.3805 87.3897C43.7305 86.3497 44.6905 85.1697 44.6905 85.1697C45.3105 87.3997 47.6705 88.5697 47.8805 88.6697C48.0905 88.5597 50.4505 87.3897 51.0705 85.1597C51.0705 85.1597 52.0305 86.3397 52.3805 87.3797C52.3805 87.3797 51.3605 88.9197 51.1605 89.6997C50.9705 90.4797 48.1105 103.63 48.1105 103.63H47.8805L47.8905 103.64Z" fill="#D70000"/>
<path d="M34.1216 113.8C34.1216 113.8 35.2816 111.15 38.5816 112.23C38.5816 112.23 39.2116 111.51 40.2416 111.1C38.3416 108.46 38.5716 105.01 38.5716 105.01L34.0616 91.7402C35.5416 99.2602 37.4216 104.99 37.4216 104.99C36.3216 108.4 37.0516 110.32 37.0516 110.32C34.1616 110.61 33.7816 113.02 33.7816 113.02C32.3716 113.43 31.8016 114.19 31.6016 114.88C32.0116 114.29 32.7616 113.75 34.1116 113.79L34.1216 113.8Z" fill="#D70000"/>
<path d="M61.8819 113.03C61.8819 113.03 61.5019 110.62 58.6119 110.33C58.6119 110.33 59.3419 108.4 58.2419 105C58.2419 105 60.1219 99.26 61.6019 91.75L57.0919 105.02C57.0919 105.02 57.3319 108.48 55.4219 111.11C56.3719 111.49 56.9819 112.13 57.0719 112.23L57.0919 112.24C60.3919 111.16 61.5519 113.81 61.5519 113.81C62.9019 113.77 63.6419 114.3 64.0619 114.9C63.8619 114.21 63.2919 113.45 61.8819 113.04V113.03Z" fill="#D70000"/>
<path d="M23.0314 31.0702C23.0314 31.0702 22.3514 24.6702 10.4514 20.4902C10.4514 20.4902 6.04139 19.2502 4.38139 17.4102C4.38139 17.4102 3.84139 19.4702 5.49139 22.5202C7.15139 25.5702 6.56139 27.2502 6.56139 27.2502C6.56139 27.2502 15.9114 27.3002 23.0214 31.0702H23.0314Z" fill="#D70000"/>
<path d="M23.2516 45.7602C23.1316 45.2302 23.0816 44.7202 23.0916 44.2402C19.2416 45.1002 16.1016 48.6702 16.1016 48.6702C19.6016 50.4002 22.2016 55.6402 22.2016 55.6402C22.1416 53.2402 24.3316 49.5002 24.7416 48.8102C24.0116 47.7402 23.4616 46.6902 23.2516 45.7602Z" fill="#D70000"/>
<path d="M23.5188 41.6297C23.5588 41.4797 23.5987 41.3197 23.6487 41.1697C23.9687 40.0197 24.2887 38.8397 24.3287 37.2697C19.6887 35.5897 10.7188 36.6797 10.7188 36.6797C10.7188 36.6797 11.9287 42.5097 16.6587 43.1797C20.0787 43.6697 22.4688 42.3797 23.5288 41.6297H23.5188Z" fill="#D70000"/>
<path d="M23.8091 33.8004L22.3591 32.9704C17.4191 30.3504 11.2491 29.6104 8.28906 29.4004C15.2991 38.6004 23.8091 33.8004 23.8091 33.8004Z" fill="#D70000"/>
<path d="M30.7911 57.2899C30.2711 55.7699 29.5211 54.7399 29.1911 54.2899C29.1111 54.1899 29.0511 54.0999 29.0211 54.0399C28.9311 53.9099 28.5311 53.4499 28.1711 53.0499C27.9911 52.8399 27.8011 52.6299 27.6211 52.4199C27.4111 52.5599 26.2311 53.4199 26.3511 56.0099C26.4811 58.8699 24.3711 60.9199 24.3711 60.9199C24.3711 60.9199 26.1011 64.1399 29.3211 67.0299C28.3911 60.9399 30.5911 57.5999 30.8111 57.2799L30.7911 57.2899Z" fill="#D70000"/>
<path d="M91.2789 17.4102C89.6289 19.2502 85.2089 20.4902 85.2089 20.4902C73.3089 24.6802 72.6289 31.0702 72.6289 31.0702C79.7389 27.3002 89.0889 27.2502 89.0889 27.2502C89.0889 27.2502 88.4989 25.5602 90.1589 22.5202C91.8189 19.4702 91.2689 17.4102 91.2689 17.4102H91.2789Z" fill="#D70000"/>
<path d="M72.5914 44.25C72.5914 44.73 72.5514 45.23 72.4314 45.77C72.2214 46.71 71.6714 47.75 70.9414 48.82C71.3514 49.5 73.5414 53.24 73.4814 55.65C73.4814 55.65 76.0814 50.41 79.5814 48.68C79.5814 48.68 76.4414 45.11 72.5914 44.25Z" fill="#D70000"/>
<path d="M71.3516 37.2697C71.3916 38.8397 71.7116 40.0197 72.0316 41.1697C72.0716 41.3197 72.1116 41.4797 72.1616 41.6297C73.2216 42.3797 75.6116 43.6597 79.0316 43.1797C83.7616 42.5097 84.9716 36.6797 84.9716 36.6797C84.9716 36.6797 76.0016 35.5897 71.3616 37.2697H71.3516Z" fill="#D70000"/>
<path d="M71.8594 33.8004C71.8594 33.8004 80.3694 38.6004 87.3794 29.4004C84.4294 29.6104 78.2594 30.3504 73.3094 32.9704C73.3094 32.9704 71.8794 33.7704 71.8594 33.8004Z" fill="#D70000"/>
<path d="M69.3384 56.0197C69.4584 53.4197 68.2884 52.5597 68.0684 52.4297C67.8784 52.6397 67.6984 52.8497 67.5184 53.0597C67.1584 53.4597 66.7584 53.9197 66.6684 54.0497C66.6284 54.1097 66.5684 54.1897 66.4984 54.2997C66.1684 54.7497 65.4184 55.7797 64.8984 57.2997C65.1184 57.6097 67.3184 60.9497 66.3884 67.0497C69.6084 64.1497 71.3384 60.9397 71.3384 60.9397C71.3384 60.9397 69.2184 58.8897 69.3584 56.0297L69.3384 56.0197Z" fill="#D70000"/>
<path d="M19.5095 19.3104C19.7395 19.6804 19.9495 20.0404 20.1595 20.4004C20.1895 20.4604 20.2195 20.5104 20.2595 20.5704C20.4595 20.9204 20.6595 21.2604 20.8495 21.5904C25.2295 29.3504 25.5995 33.5304 25.5595 37.1004C25.5295 41.0004 23.8495 42.8104 24.4495 45.5004C25.0595 48.1904 29.4895 52.5604 30.0295 53.3604C30.5495 54.1404 35.1795 59.4704 30.4995 68.0304C31.1395 68.5304 31.8295 69.0004 32.5595 69.4304C34.1995 66.4704 36.4495 64.4204 37.5095 63.5404C37.5395 61.2904 37.2995 53.1304 36.4795 47.0904C36.2595 45.0704 35.9195 43.5304 35.5495 42.3504C35.5395 42.3104 35.5195 42.2704 35.5095 42.2304C35.4695 42.1104 35.4295 41.9904 35.3895 41.8804C34.5195 39.3804 33.5795 38.6804 33.7595 38.3304C33.7595 38.3304 35.4795 37.3704 35.2195 35.5404C34.9295 33.5204 32.4195 33.3104 32.4195 33.3104C31.6595 34.2504 30.3795 32.9904 30.4295 32.8204C30.6095 32.2904 31.5795 32.1204 31.9695 32.0804H31.9895C31.9895 32.0804 32.1195 32.8704 35.6095 33.1304C35.6095 33.1304 36.5995 33.1304 36.5495 33.8804L36.4895 34.4904C36.4895 34.4904 37.3895 34.8004 38.1595 34.2004C38.9295 33.6004 38.8995 33.3704 39.5195 33.0004C40.1495 32.6304 40.4495 32.4204 41.2595 32.5004C42.0695 32.5804 42.5795 32.8504 43.6495 32.5304C44.7195 32.2104 45.4595 32.0804 45.7895 32.1804C46.0695 32.2604 46.1695 32.5604 46.2695 32.8004C46.3595 32.9904 46.5195 33.1604 46.7395 33.1604C46.9995 33.1604 47.1595 32.9804 47.3395 32.7304C47.5195 32.4804 47.7295 32.4304 47.8395 32.4304C47.9495 32.4304 48.1595 32.4704 48.3395 32.7304C48.5195 32.9804 48.6795 33.1704 48.9395 33.1604C49.1595 33.1604 49.3195 32.9904 49.4095 32.8004C49.5195 32.5704 49.6195 32.2704 49.8895 32.1804C50.2195 32.0804 50.9595 32.2204 52.0295 32.5304C53.0995 32.8504 53.5995 32.5804 54.4195 32.5004C55.2295 32.4204 55.5295 32.6204 56.1595 33.0004C56.7895 33.3704 56.7495 33.6004 57.5195 34.2004C58.2895 34.8004 59.1895 34.4904 59.1895 34.4904L59.1295 33.8804C59.0695 33.1404 60.0695 33.1304 60.0695 33.1304C63.4395 32.8804 63.6695 32.1304 63.6895 32.0804H63.7095C64.0895 32.1304 65.0695 32.2904 65.2495 32.8204C65.2995 32.9804 64.0195 34.2404 63.2595 33.3104C63.2595 33.3104 60.7495 33.5204 60.4595 35.5404C60.1995 37.3704 61.9195 38.3304 61.9195 38.3304C62.0995 38.6704 61.1595 39.3804 60.2895 41.8804C60.2495 41.9904 60.2095 42.1104 60.1695 42.2304C60.1595 42.2704 60.1395 42.3104 60.1295 42.3504C59.7595 43.5404 59.4095 45.0804 59.1995 47.0904C58.3795 53.1204 58.1495 61.2904 58.1695 63.5404C59.2295 64.4104 61.4795 66.4704 63.1195 69.4304C63.8495 69.0004 64.5395 68.5204 65.1795 68.0304C60.4995 59.4704 65.1295 54.1304 65.6495 53.3604C66.1895 52.5504 70.6195 48.1804 71.2295 45.5004C71.8395 42.8104 70.1495 41.0004 70.1195 37.1004C70.0895 33.5304 70.4495 29.3504 74.8295 21.5904C75.0195 21.2604 75.2095 20.9204 75.4195 20.5704C75.4495 20.5104 75.4795 20.4604 75.5195 20.4004C75.7295 20.0404 75.9495 19.6804 76.1695 19.3104C81.8195 10.0704 89.4095 8.62039 89.4095 8.62039L90.7195 5.66039C90.5495 5.66039 90.3895 5.67039 90.2195 5.69039C88.8995 5.78039 87.6095 6.04039 86.3695 6.42039C86.0595 6.52039 85.7495 6.62039 85.4495 6.73039C82.5595 7.79039 79.9495 9.49039 77.7995 11.2404C77.6895 11.3304 77.5695 11.4204 77.4595 11.5204C76.2395 12.5404 75.1695 13.5604 74.2995 14.4704C74.2195 14.5504 74.1395 14.6304 74.0695 14.7204C73.9195 14.8804 73.7695 15.0404 73.6295 15.1904C73.5595 15.2704 73.4895 15.3404 73.4195 15.4204C72.9495 15.9404 72.5595 16.3904 72.2595 16.7604C72.1295 16.9204 72.0195 17.0504 71.9195 17.1704C71.8595 17.2504 71.7995 17.3204 71.7495 17.3804C71.6095 17.5704 71.5295 17.6704 71.5295 17.6704C71.2495 18.0104 70.9795 18.3504 70.7195 18.6904C70.6895 18.7304 70.6595 18.7704 70.6295 18.8104C70.3995 19.1104 70.1695 19.4004 69.9595 19.6804C69.9495 19.7004 69.9395 19.7104 69.9295 19.7304C68.2295 21.9904 66.9495 24.0204 65.9895 25.7804C65.3295 26.9504 64.3895 28.9004 63.9295 30.1404C63.9095 30.2004 63.8895 30.2504 63.8695 30.3004C63.8195 30.4304 63.7595 30.5604 63.6895 30.6904C63.5195 31.0104 63.2995 31.3504 62.9595 31.5104C62.4995 31.7304 61.9895 31.8004 61.4895 31.7704C61.0295 31.7404 60.5795 31.6304 60.1495 31.4804C59.8695 31.3804 59.5895 31.2604 59.3195 31.1404C58.9395 30.9704 58.5095 30.8704 58.0995 30.8404C57.8295 30.8204 57.5495 30.8404 57.2895 30.9404C57.0395 31.0304 56.8695 31.2304 56.6595 31.3804C56.4995 31.4904 56.3195 31.5804 56.1395 31.6304C55.6295 31.7804 55.0995 31.7104 54.5795 31.6904C54.3095 31.6804 54.0295 31.6504 53.7595 31.6004C53.2295 31.5004 52.7095 31.4004 52.2295 31.1504C51.9595 31.0104 51.6995 30.8604 51.4395 30.7104C51.2895 30.6204 51.1395 30.5304 50.9895 30.4504C50.6995 30.2904 50.3795 30.1904 50.0595 30.1504C49.5895 30.0904 49.1095 30.1104 48.6395 30.1304C48.3795 30.1404 48.1295 30.1604 47.8695 30.1904C47.6095 30.1604 47.3595 30.1504 47.0995 30.1304C46.6295 30.1104 46.1495 30.0904 45.6795 30.1504C45.3495 30.1904 45.0395 30.2904 44.7495 30.4504C44.5995 30.5304 44.4495 30.6204 44.2995 30.7104C44.0395 30.8604 43.7795 31.0104 43.5095 31.1504C43.0295 31.4004 42.4995 31.5004 41.9795 31.6004C41.7095 31.6504 41.4395 31.6704 41.1595 31.6904C40.6395 31.7104 40.1095 31.7804 39.5995 31.6304C39.4095 31.5804 39.2395 31.4904 39.0795 31.3804C38.8695 31.2304 38.6995 31.0304 38.4495 30.9404C38.1895 30.8404 37.9095 30.8204 37.6395 30.8404C37.2195 30.8704 36.7995 30.9704 36.4195 31.1404C36.1395 31.2604 35.8695 31.3804 35.5895 31.4804C35.1595 31.6304 34.7095 31.7404 34.2495 31.7704C33.7495 31.8004 33.2295 31.7304 32.7795 31.5104C32.4495 31.3504 32.2195 31.0004 32.0495 30.6904C31.9795 30.5604 31.9195 30.4304 31.8595 30.2904C31.8395 30.2404 31.8195 30.1904 31.8095 30.1404C31.8095 30.1404 31.8095 30.1404 31.8095 30.1304C31.3495 28.8904 30.4095 26.9404 29.7495 25.7704C28.7795 24.0104 27.5095 21.9804 25.8095 19.7204C25.7995 19.7004 25.7895 19.6904 25.7795 19.6704C25.5595 19.3804 25.3395 19.0904 25.1095 18.8004C25.0795 18.7604 25.0495 18.7204 25.0195 18.6804C24.7595 18.3504 24.4895 18.0104 24.2095 17.6604C24.2095 17.6604 24.1395 17.5604 23.9895 17.3704C23.9395 17.3104 23.8895 17.2404 23.8195 17.1604C23.7195 17.0404 23.6095 16.9004 23.4795 16.7504C23.1795 16.3904 22.7895 15.9304 22.3195 15.4104C22.2495 15.3404 22.1795 15.2604 22.1095 15.1804C21.9695 15.0304 21.8195 14.8704 21.6695 14.7104C21.5895 14.6304 21.5195 14.5504 21.4395 14.4604C20.5595 13.5504 19.4995 12.5304 18.2795 11.5104C18.1695 11.4204 18.0595 11.3304 17.9395 11.2304C15.7895 9.48039 13.1795 7.78039 10.2895 6.72039C9.98953 6.61039 9.67953 6.50039 9.36953 6.41039C8.12953 6.02039 6.83953 5.76039 5.51953 5.68039C5.34953 5.67039 5.18953 5.66039 5.01953 5.65039L6.32953 8.61039C6.32953 8.61039 13.9295 10.0604 19.5695 19.3004L19.5095 19.3104Z" fill="#D70000"/>
<path d="M43.3988 42.9596C43.4982 42.9596 43.5788 42.879 43.5788 42.7796C43.5788 42.6802 43.4982 42.5996 43.3988 42.5996C43.2993 42.5996 43.2188 42.6802 43.2188 42.7796C43.2188 42.879 43.2993 42.9596 43.3988 42.9596Z" fill="#D70000"/>
<path d="M43.3988 45.0807C43.4982 45.0807 43.5788 45.0001 43.5788 44.9007C43.5788 44.8013 43.4982 44.7207 43.3988 44.7207C43.2993 44.7207 43.2188 44.8013 43.2188 44.9007C43.2188 45.0001 43.2993 45.0807 43.3988 45.0807Z" fill="#D70000"/>
<path d="M44.4613 44.0202C44.5607 44.0202 44.6413 43.9396 44.6413 43.8402C44.6413 43.7407 44.5607 43.6602 44.4613 43.6602C44.3618 43.6602 44.2812 43.7407 44.2812 43.8402C44.2812 43.9396 44.3618 44.0202 44.4613 44.0202Z" fill="#D70000"/>
<path d="M42.3284 44.0202C42.4278 44.0202 42.5084 43.9396 42.5084 43.8402C42.5084 43.7407 42.4278 43.6602 42.3284 43.6602C42.229 43.6602 42.1484 43.7407 42.1484 43.8402C42.1484 43.9396 42.229 44.0202 42.3284 44.0202Z" fill="#D70000"/>
<path d="M52.2816 42.9596C52.381 42.9596 52.4616 42.879 52.4616 42.7796C52.4616 42.6802 52.381 42.5996 52.2816 42.5996C52.1822 42.5996 52.1016 42.6802 52.1016 42.7796C52.1016 42.879 52.1822 42.9596 52.2816 42.9596Z" fill="#D70000"/>
<path d="M52.2816 45.0807C52.381 45.0807 52.4616 45.0001 52.4616 44.9007C52.4616 44.8013 52.381 44.7207 52.2816 44.7207C52.1822 44.7207 52.1016 44.8013 52.1016 44.9007C52.1016 45.0001 52.1822 45.0807 52.2816 45.0807Z" fill="#D70000"/>
<path d="M51.2191 44.0202C51.3185 44.0202 51.3991 43.9396 51.3991 43.8402C51.3991 43.7407 51.3185 43.6602 51.2191 43.6602C51.1197 43.6602 51.0391 43.7407 51.0391 43.8402C51.0391 43.9396 51.1197 44.0202 51.2191 44.0202Z" fill="#D70000"/>
<path d="M53.3402 44.0202C53.4396 44.0202 53.5202 43.9396 53.5202 43.8402C53.5202 43.7407 53.4396 43.6602 53.3402 43.6602C53.2407 43.6602 53.1602 43.7407 53.1602 43.8402C53.1602 43.9396 53.2407 44.0202 53.3402 44.0202Z" fill="#D70000"/>
<path d="M44.7416 35.7297C44.6616 34.7697 43.7616 34.1197 41.9316 34.2397C40.1016 34.3497 40.0616 34.2397 39.9116 34.1897C39.7616 34.1397 39.7616 34.0297 39.5216 34.0897C39.2816 34.1497 38.8016 35.5097 38.5016 36.1997C38.2016 36.8897 36.6016 37.9397 36.6016 37.9397C37.4416 38.6697 38.6116 38.5297 38.6116 38.5297V37.6497C40.8116 37.6797 43.7616 39.1797 43.7616 39.1797C43.8116 37.8397 44.8216 36.6897 44.7416 35.7397V35.7297ZM39.5316 36.2197C39.5316 36.1797 39.5416 36.1497 39.5616 36.1197C39.7316 35.6897 40.3116 35.1897 40.8016 35.4297C40.8416 35.4497 40.9216 35.5097 40.8516 35.5397C40.8216 35.5597 40.7816 35.5497 40.7516 35.5497C40.4016 35.5497 40.0716 35.7297 39.8716 35.9997C39.8316 36.0497 39.5416 36.4597 39.5416 36.2297L39.5316 36.2197ZM42.7216 38.1497C42.7216 38.1497 40.7516 37.1897 39.8016 37.0797C39.8016 37.0797 39.8016 35.9097 40.5616 35.7597C40.8616 35.6997 41.1916 35.7597 41.4816 35.8697C41.7616 35.9797 42.0316 36.1097 42.2516 36.3097C42.5316 36.5497 42.7116 36.8997 42.7216 37.2697C42.7216 37.5597 42.7316 37.8597 42.7216 38.1497Z" fill="#D70000"/>
<path d="M51.9103 39.1699C51.9103 39.1699 54.8503 37.6599 57.0603 37.6399V38.5199C57.0603 38.5199 58.2303 38.6599 59.0703 37.9299C59.0703 37.9299 57.4703 36.8799 57.1703 36.1899C56.8703 35.4999 56.3903 34.1399 56.1503 34.0799C55.9103 34.0199 55.9203 34.1299 55.7603 34.1799C55.6103 34.2299 55.5703 34.3499 53.7403 34.2299C51.9103 34.1199 51.0203 34.7599 50.9303 35.7199C50.8503 36.6799 51.8603 37.8199 51.9103 39.1599V39.1699ZM55.8103 35.9899C55.6003 35.7099 55.2803 35.5299 54.9303 35.5399C54.9003 35.5399 54.8603 35.5399 54.8303 35.5299C54.7603 35.4899 54.8303 35.4399 54.8803 35.4199C55.3703 35.1899 55.9503 35.6799 56.1203 36.1099C56.1303 36.1399 56.1403 36.1799 56.1503 36.2099C56.1503 36.4399 55.8603 36.0399 55.8203 35.9799L55.8103 35.9899ZM52.9603 37.2599C52.9603 36.8899 53.1503 36.5399 53.4303 36.2999C53.6503 36.0999 53.9303 35.9699 54.2003 35.8599C54.4903 35.7499 54.8103 35.6899 55.1203 35.7499C55.8803 35.8999 55.8803 37.0699 55.8803 37.0699C54.9303 37.1799 52.9603 38.1399 52.9603 38.1399C52.9503 37.8499 52.9603 37.5499 52.9603 37.2599Z" fill="#D70000"/>
<path d="M52.0589 55.3794C51.9489 55.4094 51.8589 55.4794 51.7689 55.5494C51.6589 55.6394 51.5589 55.7394 51.4689 55.8394C51.3189 55.9994 51.1789 56.1693 51.0489 56.3493C50.9989 56.4193 50.9489 56.5094 50.8689 56.5494C50.7689 56.5894 50.6489 56.5494 50.5489 56.5394C50.3789 56.5094 50.2089 56.5493 50.0489 56.5993C49.8789 56.6393 49.7089 56.6694 49.5389 56.6394C49.3689 56.6194 49.1989 56.5694 49.0189 56.5494C48.8689 56.5394 48.7089 56.5294 48.5589 56.5194C48.3189 56.5194 47.3689 56.5194 47.1289 56.5194C46.9789 56.5194 46.8189 56.5294 46.6689 56.5494C46.4889 56.5694 46.3189 56.6094 46.1489 56.6394C45.9789 56.6594 45.8089 56.6393 45.6389 56.5993C45.4789 56.5593 45.3089 56.5094 45.1389 56.5394C45.0389 56.5594 44.9189 56.5894 44.8189 56.5494C44.7389 56.5094 44.6889 56.4193 44.6389 56.3493C44.5089 56.1693 44.3689 55.9994 44.2189 55.8394C44.1289 55.7394 44.0289 55.6394 43.9189 55.5494C43.8289 55.4794 43.7389 55.4094 43.6289 55.3794C43.5089 55.3494 43.3789 55.4094 43.3789 55.5394C43.3789 55.5994 43.3989 55.6694 43.4189 55.7294C43.4789 55.9094 43.5789 56.0794 43.6789 56.2394C43.7589 56.3694 43.8289 56.4994 43.9089 56.6194C43.9789 56.7394 44.0589 56.8494 44.1489 56.9594C44.2789 57.1094 44.3889 57.2694 44.4889 57.4394C44.5689 57.5694 44.6189 57.7194 44.6589 57.8694C44.6989 58.0294 44.7589 58.1794 44.9289 58.2394C45.0089 58.2694 45.0989 58.2694 45.1789 58.2894C45.3189 58.3194 45.4589 58.3793 45.5989 58.4193C45.7489 58.4593 45.8989 58.4594 46.0489 58.4694C46.3289 58.4794 46.6089 58.4894 46.8889 58.4994C47.1289 58.4994 47.3789 58.4994 47.6189 58.4994C47.6989 58.4994 47.7689 58.4994 47.8489 58.4994C47.9289 58.4994 47.9989 58.4994 48.0789 58.4994C48.3189 58.4994 48.5689 58.4994 48.8089 58.4994C49.0889 58.4994 49.3689 58.4894 49.6489 58.4694C49.7989 58.4694 49.9489 58.4693 50.0989 58.4193C50.2389 58.3793 50.3789 58.3194 50.5189 58.2894C50.5989 58.2694 50.6889 58.2694 50.7689 58.2394C50.9389 58.1894 50.9989 58.0294 51.0389 57.8694C51.0789 57.7194 51.1389 57.5794 51.2089 57.4394C51.3089 57.2694 51.4289 57.1094 51.5489 56.9594C51.6389 56.8494 51.7189 56.7494 51.7889 56.6194C51.8689 56.4894 51.9389 56.3594 52.0189 56.2394C52.1189 56.0794 52.2189 55.9094 52.2789 55.7294C52.2989 55.6694 52.3189 55.6094 52.3189 55.5394C52.3189 55.3994 52.1889 55.3394 52.0689 55.3794H52.0589Z" fill="#D70000"/>
<path d="M56.1187 43.4298C56.1987 43.3198 56.1987 43.1598 56.1187 43.0498L55.4388 42.1798C55.0488 41.6898 54.6588 41.1898 54.2788 40.6998C54.0688 40.4298 53.8788 40.1398 53.6588 39.8898C53.4188 39.6198 53.1588 39.4498 52.7888 39.4098C52.5088 39.3798 52.2288 39.4099 51.9588 39.4899C51.8388 39.5199 51.7188 39.5898 51.7188 39.7298C51.6988 40.0398 52.1288 40.2598 53.0688 40.3498C53.0688 40.3498 53.5088 40.4298 53.6488 40.6198L55.4888 43.0298C55.5788 43.1498 55.5788 43.3198 55.4888 43.4398C55.2388 43.7798 54.7588 44.4298 54.6488 44.6198C54.4988 44.8898 54.0688 45.2899 53.6788 45.4699C53.2888 45.6499 52.8687 45.9098 52.7587 46.8198C52.7587 46.8198 52.6388 47.2698 51.9388 47.4698C51.9388 47.4698 52.3388 47.8998 53.3288 47.8798C53.3388 47.8798 53.2688 48.8198 53.2688 48.8798C53.2288 49.1798 53.1988 49.4898 53.1088 49.7798C53.0388 50.0198 52.8188 50.7599 52.4488 50.5799C51.9988 50.3599 51.9088 49.7698 51.8288 49.3398C51.7688 48.9798 51.7188 48.5999 51.7388 48.2399C51.7488 47.9799 51.4488 47.9598 51.2188 48.3198C50.9888 48.6798 50.7688 48.6098 50.7688 48.6098C50.3388 48.5198 50.4088 47.3198 50.4088 47.3198C50.0988 48.5298 49.4988 48.3498 49.4988 48.3498C48.8888 48.2698 49.0888 46.8398 49.0888 46.8398C48.8388 48.1598 48.3988 48.0598 48.3988 48.0598C47.8588 48.0598 47.8588 46.2498 47.8588 46.2498C47.8588 46.2498 47.8588 48.0598 47.3188 48.0598C47.3188 48.0598 46.8788 48.1598 46.6288 46.8398C46.6288 46.8398 46.8288 48.2698 46.2188 48.3498C46.2188 48.3498 45.6188 48.5298 45.3088 47.3198C45.3088 47.3198 45.3788 48.5298 44.9488 48.6098C44.9488 48.6098 44.7188 48.6798 44.4988 48.3198C44.2688 47.9598 43.9688 47.9799 43.9788 48.2399C43.9988 48.5999 43.9488 48.9798 43.8888 49.3398C43.8088 49.7798 43.7088 50.3599 43.2688 50.5799C42.8988 50.7699 42.6788 50.0298 42.6088 49.7798C42.5288 49.4898 42.4888 49.1798 42.4488 48.8798C42.4488 48.8198 42.3688 47.8798 42.3888 47.8798C43.3788 47.9098 43.7788 47.4698 43.7788 47.4698C43.0788 47.2698 42.9588 46.8198 42.9588 46.8198C42.8488 45.9198 42.4288 45.6599 42.0388 45.4699C41.6488 45.2799 41.2188 44.8798 41.0688 44.6198C40.9588 44.4198 40.4788 43.7698 40.2288 43.4398C40.1388 43.3198 40.1388 43.1498 40.2288 43.0298L42.0688 40.6198C42.2088 40.4398 42.6488 40.3498 42.6488 40.3498C43.5888 40.2598 44.0188 40.0398 43.9988 39.7298C43.9988 39.5898 43.8687 39.5299 43.7587 39.4899C43.4887 39.4099 43.2088 39.3798 42.9288 39.4098C42.5688 39.4498 42.2988 39.6298 42.0588 39.8898C41.8288 40.1498 41.6488 40.4298 41.4388 40.6998C41.0488 41.1998 40.6688 41.6898 40.2788 42.1798L39.5988 43.0498C39.5087 43.1598 39.5087 43.3098 39.5988 43.4298C39.9787 43.9498 41.0288 45.4298 41.2888 46.2098C41.6088 47.1698 40.3688 47.6998 40.0288 48.2798C39.6888 48.8598 40.0988 49.4899 40.2888 49.9899C40.4788 50.4999 41.4688 52.9098 41.7788 53.9598C42.0888 55.0098 42.4988 55.1998 42.8688 55.1798C43.1388 55.1698 43.3487 55.0098 43.5087 54.8098C43.6887 54.5898 43.6888 54.2198 43.6888 53.9498C43.6888 53.6998 43.6888 53.4498 43.6888 53.1898C43.6888 53.0298 43.7988 52.8898 43.9488 52.8498C44.4688 52.7198 45.6088 52.4598 46.2088 52.5898C46.9988 52.7598 47.1488 53.0598 47.8688 52.6898C48.5888 53.0598 48.7488 52.7598 49.5288 52.5898C50.1288 52.4598 51.2688 52.7198 51.7888 52.8498C51.9388 52.8898 52.0488 53.0298 52.0488 53.1898C52.0488 53.4398 52.0488 53.6898 52.0488 53.9498C52.0488 54.2198 52.0488 54.5898 52.2288 54.8098C52.3888 55.0198 52.5988 55.1698 52.8688 55.1798C53.2388 55.1998 53.6488 55.0098 53.9588 53.9598C54.2688 52.9098 55.2588 50.4899 55.4488 49.9899C55.6388 49.4799 56.0487 48.8498 55.7087 48.2798C55.3687 47.7098 54.1288 47.1698 54.4488 46.2098C54.7088 45.4298 55.7588 43.9498 56.1388 43.4298H56.1187Z" fill="#D70000"/>
<path d="M30.9488 86.9805C31.4788 88.6205 33.1188 90.1805 33.1188 90.1805C33.4188 90.3905 33.6188 90.3005 33.7288 90.1805C33.8188 90.0805 33.8588 89.9505 33.8588 89.8205C33.9688 84.7605 36.9988 80.9905 36.9988 80.9905C33.9288 79.3305 31.1488 71.7305 31.1488 71.7305C30.0688 74.7705 30.1188 77.7305 31.3388 79.4105C32.5588 81.0905 32.4588 82.4405 32.4588 82.4405C32.4888 84.9405 30.9288 86.9705 30.9288 86.9705L30.9488 86.9805Z" fill="#D70000"/>
<path d="M64.7219 86.9805C64.1919 88.6205 62.5519 90.1805 62.5519 90.1805C62.2519 90.3905 62.0519 90.3005 61.9419 90.1805C61.8519 90.0805 61.8119 89.9505 61.8119 89.8205C61.7019 84.7605 58.6719 80.9905 58.6719 80.9905C61.7419 79.3305 64.5219 71.7305 64.5219 71.7305C65.6019 74.7705 65.5519 77.7305 64.3319 79.4105C63.1119 81.0905 63.2119 82.4405 63.2119 82.4405C63.1819 84.9405 64.7419 86.9705 64.7419 86.9705L64.7219 86.9805Z" fill="#D70000"/>
<path d="M66.7316 118.84C65.9616 118.83 65.3516 118.19 65.3716 117.43C65.3916 116.67 66.0216 116.06 66.7816 116.07C67.5416 116.08 68.1616 116.72 68.1416 117.48C68.1216 118.24 67.4916 118.85 66.7316 118.84ZM66.7816 116.26C66.1216 116.25 65.5816 116.77 65.5616 117.43C65.5416 118.09 66.0816 118.63 66.7316 118.64C67.3816 118.65 67.9316 118.13 67.9516 117.47C67.9716 116.81 67.4416 116.27 66.7816 116.26ZM67.3516 117.48C67.2816 117.53 67.2216 117.54 67.1516 117.55L67.5216 118.16H67.2816L66.9216 117.56H66.3416L66.3316 118.14H66.1216L66.1516 116.67L67.0516 116.69C67.1916 116.69 67.2616 116.7 67.3516 116.76C67.4816 116.83 67.5616 117 67.5516 117.14C67.5516 117.26 67.4816 117.42 67.3716 117.49L67.3516 117.48ZM67.2316 116.92C67.2316 116.92 67.1316 116.88 66.9916 116.88H66.3416V117.35H67.0216C67.1416 117.37 67.1916 117.35 67.2316 117.32C67.3016 117.27 67.3316 117.2 67.3316 117.11C67.3316 117.02 67.3016 116.96 67.2316 116.92Z" fill="#D70000"/>
</svg>
